<svg width="1015" height="415" viewBox="0 0 1015 415" fill="none" xmlns="http://www.w3.org/2000/svg">
<g clip-path="url(#clip0_1_4)">
<path d="M566.986 123.512C567.659 123.512 568.108 123.287 568.557 122.838L625.144 66.2473C626.042 65.349 626.042 64.0016 625.144 63.1034C624.245 62.2051 622.898 62.2051 622 63.1034L565.414 119.694C564.516 120.593 564.516 121.94 565.414 122.838C565.638 123.287 566.312 123.512 566.986 123.512Z" fill="#F0F0F0"/>
<path d="M637.718 202.56C638.167 203.009 638.841 203.233 639.29 203.233C639.739 203.233 640.413 203.009 640.862 202.56L669.604 173.815C670.503 172.917 670.503 171.569 669.604 170.671C668.706 169.773 667.359 169.773 666.461 170.671L637.718 199.191C636.82 200.089 636.82 201.661 637.718 202.56Z" fill="#F0F0F0"/>
<path d="M754.484 95.6656C755.157 95.6656 755.607 95.441 756.056 94.9919L784.798 66.2473C785.696 65.349 785.696 64.0016 784.798 63.1034C783.9 62.2051 782.552 62.2051 781.654 63.1034L752.912 91.848C752.014 92.7462 752.014 94.0936 752.912 94.9919C753.361 95.441 753.81 95.6656 754.484 95.6656Z" fill="#F0F0F0"/>
<path d="M590.339 128.003C590.788 128.452 591.461 128.677 591.91 128.677C592.36 128.677 593.033 128.452 593.482 128.003L659.949 61.5314C660.847 60.6331 660.847 59.2857 659.949 58.3874C659.051 57.4892 657.703 57.4892 656.805 58.3874L590.339 124.859C589.44 125.758 589.44 127.105 590.339 128.003Z" fill="#F0F0F0"/>
<path d="M562.27 158.32C562.944 158.32 563.393 158.095 563.842 157.646L576.417 145.07C577.315 144.172 577.315 142.825 576.417 141.926C575.518 141.028 574.171 141.028 573.273 141.926L560.698 154.502C559.8 155.4 559.8 156.748 560.698 157.646C561.147 158.095 561.821 158.32 562.27 158.32Z" fill="#F0F0F0"/>
<path d="M474.472 178.531L461.897 191.107C460.999 192.005 460.999 193.352 461.897 194.251C462.346 194.7 463.02 194.924 463.469 194.924C463.918 194.924 464.591 194.7 465.04 194.251L477.615 181.675C478.513 180.776 478.513 179.429 477.615 178.531C476.717 177.857 475.37 177.857 474.472 178.531Z" fill="#F0F0F0"/>
<path d="M761.669 58.1629C762.343 58.1629 762.792 57.9383 763.241 57.4892L775.816 44.9134C776.714 44.0152 776.714 42.6677 775.816 41.7695C774.918 40.8712 773.57 40.8712 772.672 41.7695L760.097 54.3452C759.199 55.2435 759.199 56.5909 760.097 57.4892C760.547 57.9383 761.22 58.1629 761.669 58.1629Z" fill="#F0F0F0"/>
<path d="M225.447 256.905H240.267C241.614 256.905 242.513 256.006 242.513 254.659C242.513 253.312 241.614 252.413 240.267 252.413H225.447C224.1 252.413 223.201 253.312 223.201 254.659C223.201 256.006 224.324 256.905 225.447 256.905Z" fill="#F0F0F0"/>
<path d="M289.668 256.905H304.488C305.835 256.905 306.734 256.006 306.734 254.659C306.734 253.312 305.835 252.413 304.488 252.413H289.668C288.321 252.413 287.422 253.312 287.422 254.659C287.422 256.006 288.321 256.905 289.668 256.905Z" fill="#F0F0F0"/>
<path d="M799.843 255.782H785.022C783.675 255.782 782.777 256.68 782.777 258.028C782.777 259.375 783.675 260.273 785.022 260.273H799.843C801.19 260.273 802.088 259.375 802.088 258.028C802.088 256.905 801.19 255.782 799.843 255.782Z" fill="#F0F0F0"/>
<path d="M715.637 255.782H700.817C699.469 255.782 698.571 256.68 698.571 258.028C698.571 259.375 699.469 260.273 700.817 260.273H715.637C716.984 260.273 717.882 259.375 717.882 258.028C717.882 256.905 716.984 255.782 715.637 255.782Z" fill="#F0F0F0"/>
<path d="M869.453 260.273H884.273C885.62 260.273 886.518 259.375 886.518 258.028C886.518 256.68 885.62 255.782 884.273 255.782H869.453C868.105 255.782 867.207 256.68 867.207 258.028C867.207 259.375 868.105 260.273 869.453 260.273Z" fill="#F0F0F0"/>
<path d="M511.073 359.307H506.582V371.659H511.073V359.307Z" fill="#F0F0F0"/>
<path d="M1241.75 410.509H1167.43V303.839H1092.65V266.561H1111.07V277.789C1111.07 279.137 1111.97 280.035 1113.31 280.035C1114.66 280.035 1115.56 279.137 1115.56 277.789V266.561H1127.01L1104.56 207.949H1076.49L1054.03 266.561H1088.39V303.839H1047.3V410.509H1008H991.607L983.523 392.992H989.362C993.179 392.992 996.098 390.073 996.098 386.255V330.114V325.622V286.772C996.098 282.955 993.179 280.035 989.362 280.035H973.643V239.838C973.643 227.262 963.314 216.932 950.739 216.932H824.543V0H716.31H527.69H419.682V267.01H464.816V303.839H423.723V410.509H363.994V299.123C363.994 287.446 355.236 278.014 343.784 276.891V243.431C343.784 225.241 328.964 210.644 311 210.644H219.16C200.971 210.644 186.375 225.465 186.375 243.431V276.891C175.148 278.014 166.166 287.67 166.166 299.123V410.509H130.238L138.547 363.799H145.058V339.995H132.259L134.954 317.313C135.178 316.19 134.28 315.068 132.933 314.843C131.81 314.618 130.687 315.517 130.463 316.864L127.768 339.995H123.053L128.666 282.056C128.891 280.933 127.768 279.811 126.645 279.586C125.523 279.361 124.4 280.484 124.175 281.607L118.562 339.995H112.948L114.071 314.169C114.071 312.822 113.173 311.924 111.825 311.924C110.703 311.924 109.58 312.822 109.58 314.169L108.457 340.219H102.17L100.149 302.043C100.149 300.695 99.026 299.797 97.6787 300.022C96.3314 300.022 95.4332 301.144 95.6578 302.492L97.6787 340.444H92.7386L87.3495 284.077C87.1249 282.955 86.2267 281.832 84.8794 282.056C83.7567 282.281 82.6339 283.179 82.8585 284.527L88.2477 340.444H81.5112L77.4693 314.169C77.2448 313.047 76.122 312.148 74.9993 312.373C73.8765 312.597 72.9783 313.72 73.2029 314.843L77.0202 340.444H62.8736V363.799H69.6101L77.9184 410.509H2.24549C0.898195 410.509 0 411.407 0 412.754C0 414.102 0.898195 415 2.24549 415H165.942H206.136H210.627H319.084H323.575H363.769H577.09H596.401H988.464H1007.77H1241.75C1243.1 415 1244 414.102 1244 412.754C1244 411.407 1243.1 410.509 1241.75 410.509ZM1079.41 212.44H1101.41L1120.5 262.07H1060.54L1079.41 212.44ZM67.3646 359.307V344.486H140.568V359.307H139.22H68.7119H67.3646ZM133.831 363.799L125.972 407.814H81.9603L74.1011 363.799H133.831ZM219.16 214.911H311C326.718 214.911 339.293 227.711 339.293 243.206V276.667C328.066 277.789 319.084 287.446 319.084 298.899V310.127C317.736 309.453 316.165 308.78 314.593 308.78H215.342C213.77 308.78 212.199 309.229 210.851 310.127V298.899C210.851 287.221 202.094 277.789 190.642 276.667V243.206C190.642 227.711 203.441 214.911 219.16 214.911ZM210.851 317.987C210.851 315.517 212.872 313.496 215.342 313.496H314.817C317.287 313.496 319.308 315.517 319.308 317.987V374.129H210.851V317.987ZM170.432 410.509V299.123C170.432 289.242 178.516 281.158 188.396 281.158C198.277 281.158 206.36 289.242 206.36 299.123V317.987V374.129V378.62V410.509H170.432ZM210.851 410.509V378.62H319.308V410.509H210.851ZM323.799 410.509V378.62V374.129V317.987V299.123C323.799 289.242 331.883 281.158 341.763 281.158C351.643 281.158 359.727 289.242 359.727 299.123V410.509H323.799ZM991.832 386.255C991.832 387.603 990.934 388.501 989.586 388.501H595.503C594.156 388.501 593.258 387.603 593.258 386.255V330.114H666.461H918.404H991.607V386.255H991.832ZM659.724 284.527C661.071 284.527 661.97 285.425 661.97 286.772V325.622H593.258V286.772C593.258 285.425 594.156 284.527 595.503 284.527H659.724ZM991.832 286.772V325.622H923.12V286.772C923.12 285.425 924.018 284.527 925.365 284.527H989.586C990.709 284.527 991.832 285.649 991.832 286.772ZM969.152 239.838V280.035H925.141C921.323 280.035 918.404 282.955 918.404 286.772V325.622H666.461V286.772C666.461 282.955 663.542 280.035 659.724 280.035H615.713V239.838C615.713 229.732 624.021 221.423 634.126 221.423H950.515C960.844 221.199 969.152 229.508 969.152 239.838ZM801.19 216.707H734.724V23.355H801.19V216.707ZM820.052 4.49134V216.707H805.681V18.8636H730.233V216.707H716.31V4.49134H820.052ZM711.82 4.49134V216.707H634.126C621.551 216.707 611.222 227.037 611.222 239.613V262.294H532.181V4.49134H711.82ZM423.948 4.49134H527.69V262.519H502.091L496.702 248.147H513.992V18.8636H438.544V245.901L432.256 262.519H424.397V4.49134H423.948ZM480.983 207.949H477.615L502.54 183.022C503.438 182.124 503.438 180.777 502.54 179.878C501.642 178.98 500.295 178.98 499.396 179.878L471.328 207.949H452.915L442.81 234.223V23.1304H509.277V243.431H494.905L480.983 207.949ZM456.059 212.44H478.064L491.313 246.799L497.151 262.07H437.196L456.059 212.44ZM428.214 308.331H539.591V409.835H527.465V322.029H440.565V409.835H428.439V308.331H428.214ZM522.75 410.06H444.831V326.745H522.75V410.06ZM577.09 410.509H543.857V303.839H469.307V267.01H487.72V277.789C487.72 279.137 488.618 280.035 489.965 280.035C491.313 280.035 492.211 279.137 492.211 277.789V267.01H527.69H611.222V280.035H595.503C591.686 280.035 588.767 282.955 588.767 286.772V325.622V330.114V386.255C588.767 390.073 591.686 392.992 595.503 392.992H601.341L593.482 410.509H577.09ZM598.422 410.509L606.282 392.992H978.583L986.443 410.509H598.422ZM1146.1 410.06H1068.18V326.745H1146.1V410.06ZM1051.56 308.331H1162.94V409.835H1150.81V322.029H1063.91V409.835H1051.79V308.331H1051.56Z" fill="#F0F0F0"/>
<path d="M1001.94 145.519C1033.6 145.519 1059.42 114.529 1059.42 76.3528C1059.42 38.1764 1033.6 7.18614 1001.94 7.18614C970.275 7.18614 944.452 38.1764 944.452 76.3528C944.452 114.529 970.275 145.519 1001.94 145.519ZM1001.94 11.4529C1031.13 11.4529 1054.93 40.4221 1054.93 76.1282C1054.93 111.834 1031.13 140.804 1001.94 140.804C972.745 140.804 948.943 112.059 948.943 76.3528C948.943 40.6466 972.745 11.4529 1001.94 11.4529Z" fill="#F0F0F0"/>
<path d="M987.79 34.5833C988.913 33.9096 989.362 32.5622 988.688 31.664C988.014 30.7657 986.667 30.092 985.769 30.7657C975.215 36.1553 967.131 46.4854 963.089 59.2857C962.64 60.4086 963.314 61.756 964.661 61.9805C964.886 61.9805 965.11 61.9805 965.335 61.9805C966.233 61.9805 967.131 61.3068 967.58 60.4086C970.949 48.7311 978.359 39.2992 987.79 34.5833Z" fill="#F0F0F0"/>
<path d="M1085.69 174.489C1085.69 169.324 1081.65 165.281 1076.49 165.281H927.386C922.222 165.281 918.18 169.324 918.18 174.489V183.92H1085.69V174.489ZM1081.2 179.429H922.671V174.489C922.671 172.018 924.692 169.773 927.386 169.773H1076.49C1078.96 169.773 1081.2 171.794 1081.2 174.489V179.429Z" fill="#F0F0F0"/>
</g>
<defs>
<clipPath id="clip0_1_4">
<rect width="1244" height="415" fill="white"/>
</clipPath>
</defs>
</svg>
