<svg width="225" height="47" viewBox="0 0 225 47" fill="none" xmlns="http://www.w3.org/2000/svg">
<g clip-path="url(#clip0_1_155)">
<path d="M66.0083 18.7755C61.1602 18.7755 57.6795 21.9661 57.6795 27.1201C57.6795 32.2741 61.1602 35.4647 66.0083 35.4647C70.1105 35.4647 72.9696 33.0104 73.7154 29.8198H68.3701C67.9972 30.6788 67.1271 31.4151 65.7596 31.4151C64.1436 31.4151 62.7762 30.4334 62.6519 28.3473H73.9641C73.9641 27.8564 74.0884 27.3655 74.0884 26.8747C74.2127 21.8433 70.8563 18.7755 66.0083 18.7755ZM62.7762 25.5248C63.0248 23.6841 64.2679 22.7023 66.0083 22.7023C67.6243 22.7023 69.116 23.6841 69.116 25.5248H62.7762Z" fill="#6B2AEE"/>
<path d="M89.3784 24.9112H77.942V28.9608H89.3784V24.9112Z" fill="#6B2AEE"/>
<path d="M105.166 21.2298C104.171 19.7572 102.307 18.7755 100.069 18.7755C96.0911 18.7755 92.8591 21.9661 92.8591 26.9974C92.8591 32.1514 96.0911 35.342 100.069 35.342C102.431 35.342 104.171 34.2376 105.166 32.765V35.0966H110.138V13.7441H105.166V21.2298ZM101.561 31.047C99.6961 31.047 97.9558 29.5744 97.9558 26.9974C97.9558 24.4204 99.6961 23.0705 101.561 23.0705C103.425 23.0705 105.166 24.5431 105.166 27.1201C105.166 29.6971 103.425 31.047 101.561 31.047Z" fill="#6B2AEE"/>
<path d="M118.715 19.0209H113.743V35.2193H118.715V19.0209Z" fill="#6B2AEE"/>
<path d="M116.229 12.0261C114.489 12.0261 113.246 13.2533 113.246 14.7258C113.246 16.1984 114.489 17.4256 116.229 17.4256C117.97 17.4256 119.213 16.1984 119.213 14.7258C119.213 13.1305 118.094 12.0261 116.229 12.0261Z" fill="#6B2AEE"/>
<path d="M133.633 21.2298C132.762 19.7572 131.022 18.6527 128.536 18.6527C124.558 18.6527 121.326 21.8433 121.326 26.8747C121.326 32.0287 124.558 35.2193 128.536 35.2193C131.022 35.2193 132.638 34.1149 133.633 32.6423V34.9739H138.605V19.0209H133.633V21.2298ZM130.152 31.047C128.287 31.047 126.547 29.5744 126.547 26.9974C126.547 24.4204 128.287 23.0705 130.152 23.0705C132.017 23.0705 133.757 24.5431 133.757 27.1201C133.633 29.6971 132.017 31.047 130.152 31.047Z" fill="#6B2AEE"/>
<path d="M147.307 21.7206V19.0209H142.334V35.2193H147.307V27.7337C147.307 24.9112 148.674 24.1749 151.036 24.1749H152.403V18.8982C150.29 18.7755 148.425 20.0026 147.307 21.7206Z" fill="#6B2AEE"/>
<path d="M159.862 19.0209H154.889V35.2193H159.862V19.0209Z" fill="#6B2AEE"/>
<path d="M157.376 12.0261C155.635 12.0261 154.392 13.2533 154.392 14.7258C154.392 16.1984 155.635 17.4256 157.376 17.4256C159.116 17.4256 160.359 16.1984 160.359 14.7258C160.359 13.1305 159.116 12.0261 157.376 12.0261Z" fill="#6B2AEE"/>
<path d="M167.818 23.6841C167.818 22.9478 168.439 22.4569 169.682 22.4569C171.05 22.4569 171.92 23.1932 172.044 24.2976H176.644C176.271 21.107 174.033 18.7755 169.807 18.7755C165.58 18.7755 163.094 20.9843 163.094 23.8068C163.094 29.6971 172.044 27.8564 172.044 30.4334C172.044 31.1697 171.423 31.7833 170.055 31.7833C168.688 31.7833 167.693 31.047 167.569 29.9426H162.597C162.845 33.0104 165.704 35.4647 170.18 35.4647C174.282 35.4647 176.768 33.3786 176.768 30.5561C176.768 24.4204 167.818 26.2611 167.818 23.6841Z" fill="#6B2AEE"/>
<path d="M185.718 29.5744V23.0705H188.95V19.0209H185.718V15.094H180.746V19.0209H178.757V23.0705H180.746V29.4517C180.746 33.624 183.108 35.0966 186.464 35.0966H189.075V30.9243H187.334C186.091 30.9243 185.718 30.5561 185.718 29.5744Z" fill="#6B2AEE"/>
<path d="M202.997 21.2298C202.127 19.7572 200.387 18.6527 197.901 18.6527C193.923 18.6527 190.691 21.8433 190.691 26.8747C190.691 32.0287 193.923 35.2193 197.901 35.2193C200.387 35.2193 202.003 34.1149 202.997 32.6423V34.9739H207.97V19.0209H202.997V21.2298ZM199.517 31.047C197.652 31.047 195.912 29.5744 195.912 26.9974C195.912 24.4204 197.652 23.0705 199.517 23.0705C201.381 23.0705 203.122 24.5431 203.122 27.1201C202.997 29.6971 201.381 31.047 199.517 31.047Z" fill="#6B2AEE"/>
<path d="M216.05 23.6841C216.05 22.9478 216.671 22.4569 217.914 22.4569C219.282 22.4569 220.152 23.1932 220.276 24.2976H224.876C224.503 21.107 222.265 18.7755 218.039 18.7755C213.812 18.7755 211.326 20.9843 211.326 23.8068C211.326 29.6971 220.276 27.8564 220.276 30.4334C220.276 31.1697 219.655 31.7833 218.287 31.7833C216.92 31.7833 215.925 31.047 215.801 29.9426H210.829C211.077 33.0104 213.936 35.4647 218.412 35.4647C222.514 35.4647 225 33.3786 225 30.5561C224.876 24.4204 216.05 26.2611 216.05 23.6841Z" fill="#6B2AEE"/>
<path d="M7.9558 14.7258L5.96685 14.1123L4.84807 13.8668L4.47514 12.7624L3.9779 10.799L3.48066 12.7624L3.10773 13.8668L1.98895 14.1123L0 14.7258L1.98895 15.2167L3.10773 15.5849L3.48066 16.6893L3.9779 18.6527L4.47514 16.6893L4.84807 15.5849L5.96685 15.2167L7.9558 14.7258Z" fill="#02E7D9"/>
<path d="M24.8619 1.96345L23.8674 1.71802L23.2459 1.5953L23.1215 0.981723L22.8729 0L22.6243 0.981723L22.3757 1.5953L21.8784 1.71802L20.884 1.96345L21.8784 2.20888L22.3757 2.33159L22.6243 2.94517L22.8729 3.92689L23.1215 2.94517L23.2459 2.33159L23.8674 2.20888L24.8619 1.96345Z" fill="#02E7D9"/>
<path fill-rule="evenodd" clip-rule="evenodd" d="M5.84257 18.53C2.85914 26.0157 4.47516 34.8512 10.5663 40.8642C18.7707 48.9634 32.1962 48.9634 40.4006 40.8642C48.605 32.765 48.605 19.5118 40.4006 11.4125C34.4337 5.27676 25.4834 3.68146 17.9006 6.62663C19.6409 6.13577 21.5056 5.76762 23.2459 5.76762C27.9696 5.76762 32.5691 7.48564 36.1741 11.0444C39.779 14.6031 41.5194 19.1436 41.5194 23.8068C41.5194 28.47 39.779 33.0104 36.1741 36.5692C32.5691 40.1279 27.9696 41.846 23.2459 41.846C18.5221 41.846 13.9227 40.1279 10.3177 36.5692C6.83704 33.1332 5.09671 28.47 5.09671 23.8068C5.09671 22.0888 5.34533 20.248 5.84257 18.53Z" fill="#6B2AEE"/>
<path fill-rule="evenodd" clip-rule="evenodd" d="M7.45856 30.5561C10.0691 36.4465 16.1602 40.6188 23.1215 40.6188C32.5691 40.6188 40.2762 33.0104 40.2762 23.6841C40.2762 14.3577 32.5691 6.74934 23.1215 6.74934C16.1602 6.74934 10.0691 10.9217 7.45856 16.9347C8.20441 15.5849 9.07458 14.4804 10.0691 13.376C12.8039 10.6762 16.4088 9.08094 20.511 9.08094C24.6133 9.08094 28.3425 10.6762 30.953 13.376C33.6878 16.0757 35.3039 19.6345 35.3039 23.6841C35.3039 27.7337 33.6878 31.4151 30.953 33.9922C28.2182 36.6919 24.6133 38.2872 20.511 38.2872C16.4088 38.2872 12.6796 36.6919 10.0691 33.9922C9.07458 33.0104 8.20441 31.7833 7.45856 30.5561Z" fill="#02E7D9"/>
<path fill-rule="evenodd" clip-rule="evenodd" d="M22.8729 39.3916C26.2292 38.9008 29.4613 37.3055 31.9475 34.9739C34.9309 32.0287 36.6712 27.9791 36.6712 23.8068C36.6712 19.6345 35.0552 15.5849 31.9475 12.6397C29.4613 10.1854 26.3536 8.59009 22.8729 8.22194C22.9972 8.22194 22.9972 8.22194 23.1215 8.22194C31.9475 8.22194 39.0331 15.2167 39.0331 23.9295C39.0331 28.1018 37.4171 32.0287 34.4337 34.9739C31.4502 37.9191 27.4723 39.5144 23.2458 39.5144C22.9972 39.3917 22.9972 39.3916 22.8729 39.3916Z" fill="url(#paint0_linear_1_155)"/>
<path d="M42.1409 8.83551C44.1319 8.83551 45.7459 7.24221 45.7459 5.27676C45.7459 3.31132 44.1319 1.71802 42.1409 1.71802C40.1499 1.71802 38.5359 3.31132 38.5359 5.27676C38.5359 7.24221 40.1499 8.83551 42.1409 8.83551Z" fill="#02E7D9"/>
<path d="M42.1409 2.69974C43.6326 2.69974 44.7514 3.80418 44.7514 5.27676" stroke="white" stroke-width="0.7" stroke-miterlimit="10"/>
<path d="M6.33976 47C9.36055 47 11.8094 44.5826 11.8094 41.6005C11.8094 38.6185 9.36055 36.201 6.33976 36.201C3.31898 36.201 0.870148 38.6185 0.870148 41.6005C0.870148 44.5826 3.31898 47 6.33976 47Z" fill="#02E7D9"/>
<path d="M5.59391 45.282C3.48065 44.9138 2.11325 42.8277 2.48618 40.7415" stroke="white" stroke-miterlimit="10"/>
<path d="M41.0221 36.201L38.6602 35.4648L37.2928 35.0966L36.9199 33.7467L36.174 31.4151L35.5525 33.7467L35.1796 35.0966L33.8122 35.4648L31.4503 36.201L33.8122 36.8146L35.1796 37.1828L35.5525 38.5326L36.174 40.8642L36.9199 38.5326L37.2928 37.1828L38.6602 36.8146L41.0221 36.201Z" fill="white"/>
<path d="M34.6823 24.1749H30.3315V33.1332L30.2072 33.2559C27.5967 35.8329 24.2403 37.1828 20.511 37.1828C16.906 37.1828 13.5497 35.8329 11.0635 33.3786V24.0522H6.71268L11.6851 20.0026V14.7258H15.9116V16.6893L20.6353 12.8851L27.5967 18.53L34.1851 23.9295L34.6823 24.1749Z" fill="#02E7D9"/>
<path d="M20.0138 25.0339H17.4033V27.611H20.0138V25.0339Z" fill="white"/>
<path d="M23.9917 25.0339H21.3812V27.611H23.9917V25.0339Z" fill="white"/>
<path d="M20.0138 28.8381H17.4033V31.4151H20.0138V28.8381Z" fill="white"/>
<path d="M23.9917 28.8381H21.3812V31.4151H23.9917V28.8381Z" fill="white"/>
<path fill-rule="evenodd" clip-rule="evenodd" d="M25.6077 45.4047C20.3867 45.4047 15.4143 43.4413 11.6851 39.7598C11.4364 39.5144 11.3121 39.3917 11.0635 39.1462C14.5442 41.846 18.7707 43.3185 23.2458 43.3185C28.5911 43.3185 33.4392 41.2324 37.1685 37.5509C37.9143 36.8146 38.5359 36.0783 39.1574 35.2193C38.163 38.1645 36.5469 40.7415 34.558 43.1958C31.8232 44.6684 28.7154 45.4047 25.6077 45.4047Z" fill="url(#paint1_linear_1_155)"/>
<path d="M16.538 18.2442V14.6855H16.0408V18.2442H16.538Z" fill="white"/>
</g>
<defs>
<linearGradient id="paint0_linear_1_155" x1="24.81" y1="11.534" x2="30.4146" y2="29.134" gradientUnits="userSpaceOnUse">
<stop stop-color="white"/>
<stop offset="1" stop-color="white" stop-opacity="0"/>
</linearGradient>
<linearGradient id="paint1_linear_1_155" x1="3.14164" y1="36.2784" x2="29.5191" y2="40.1785" gradientUnits="userSpaceOnUse">
<stop stop-color="white"/>
<stop offset="1" stop-color="white" stop-opacity="0"/>
</linearGradient>
<clipPath id="clip0_1_155">
<rect width="225" height="47" fill="white"/>
</clipPath>
</defs>
</svg>
